# xmcd
#
# Track frame offsets:
#	150
#	19051
#	36331
#	51443
#	69981
#	86487
#	102587
#	119923
#	138524
#	153150
#
# Disc length: 2298 seconds
#
# Revision: 1
# Processed by: cddbd v1.5.1PL0 Copyright (c) Steve Scherf et al.
# Submitted via: audiograbber 1.82.02
#
DISCID=8c08f80a
DTITLE=The Ranchhands - Back Home
DYEAR=1900
DGENRE=
TTITLE0=Country My Way
TTITLE1=A Thousand Miles Away
TTITLE2=She Said
TTITLE3=Best Friend
TTITLE4=Back Where I Belong
TTITLE5=Mountain Home
TTITLE6=Forever in Her Eyes
TTITLE7=Anyhting She Wants
TTITLE8=Honky Tonk Place to Be
TTITLE9=Second Place
EXTD=
EXTT0=
EXTT1=
EXTT2=
EXTT3=
EXTT4=
EXTT5=
EXTT6=
EXTT7=
EXTT8=
EXTT9=
PLAYORDER=
